<?xml version="1.0" encoding="iso-8859-1"?>
<!-- Generator: Adobe Illustrator 18.0.0, SVG Export Plug-In . SVG Version: 6.00 Build 0)  -->
<!DOCTYPE svg PUBLIC "-//W3C//DTD SVG 1.1//EN" "http://www.w3.org/Graphics/SVG/1.1/DTD/svg11.dtd">
<svg xmlns="http://www.w3.org/2000/svg" xmlns:xlink="http://www.w3.org/1999/xlink" version="1.1" id="Capa_1" x="0px" y="0px" viewBox="0 0 60 60" style="enable-background:new 0 0 60 60;" xml:space="preserve" width="512px" height="512px">
<path d="M53,41.069V29H31V18.931c3.94-0.495,7-3.859,7-7.931c0-4.411-3.589-8-8-8s-8,3.589-8,8c0,4.072,3.06,7.436,7,7.931V29H7  v12.069C3.06,41.564,0,44.928,0,49c0,4.411,3.589,8,8,8s8-3.589,8-8c0-4.072-3.06-7.436-7-7.931V31h20v10.069  c-3.94,0.495-7,3.859-7,7.931c0,4.411,3.589,8,8,8s8-3.589,8-8c0-4.072-3.06-7.436-7-7.931V31h20v10.069  c-3.94,0.495-7,3.859-7,7.931c0,4.411,3.589,8,8,8s8-3.589,8-8C60,44.928,56.94,41.564,53,41.069z M24,11c0-3.309,2.691-6,6-6  s6,2.691,6,6s-2.691,6-6,6S24,14.309,24,11z M14,49c0,3.309-2.691,6-6,6s-6-2.691-6-6s2.691-6,6-6S14,45.691,14,49z M36,49  c0,3.309-2.691,6-6,6s-6-2.691-6-6s2.691-6,6-6S36,45.691,36,49z M52,55c-3.309,0-6-2.691-6-6s2.691-6,6-6s6,2.691,6,6  S55.309,55,52,55z" fill="#FFFFFF"/>
<g>
</g>
<g>
</g>
<g>
</g>
<g>
</g>
<g>
</g>
<g>
</g>
<g>
</g>
<g>
</g>
<g>
</g>
<g>
</g>
<g>
</g>
<g>
</g>
<g>
</g>
<g>
</g>
<g>
</g>
</svg>
