<?xml version="1.0" encoding="iso-8859-1"?>
<!-- Generator: Adobe Illustrator 18.0.0, SVG Export Plug-In . SVG Version: 6.00 Build 0)  -->
<!DOCTYPE svg PUBLIC "-//W3C//DTD SVG 1.1//EN" "http://www.w3.org/Graphics/SVG/1.1/DTD/svg11.dtd">
<svg xmlns="http://www.w3.org/2000/svg" xmlns:xlink="http://www.w3.org/1999/xlink" version="1.1" id="Capa_1" x="0px" y="0px" viewBox="0 0 60.07 60.07" style="enable-background:new 0 0 60.07 60.07;" xml:space="preserve" width="512px" height="512px">
<path d="M35.076,4.522c10.313,2.021,18.488,10.197,20.51,20.51h-20.51V4.522 M31.076,0.038v28.994H60.07l-0.073-1.068  C58.984,13.099,47.01,1.124,32.144,0.11L31.076,0.038L31.076,0.038z" fill="#FFFFFF"/>
<path d="M51.415,51.129l0.706-0.766c4.618-5.008,7.415-11.494,7.876-18.263l0.073-1.068H31.318L51.415,51.129z" fill="#FFFFFF"/>
<path d="M29,0.038L27.932,0.11C12.269,1.179,0,14.321,0,30.032c0,7.239,2.621,14.233,7.38,19.695l0.704,0.808L29,29.618V0.038z" fill="#FFFFFF"/>
<path d="M29.414,37.689L43.79,52.065c-4.113,2.576-8.904,3.968-13.79,3.968c-5.19,0-10.234-1.555-14.502-4.427L29.414,37.689   M29.414,32.032L9.498,51.948l0.808,0.704c5.461,4.759,12.456,7.38,19.694,7.38c6.927,0,13.687-2.425,19.037-6.826l0.851-0.7  L29.414,32.032L29.414,32.032z" fill="#FFFFFF"/>
<g>
</g>
<g>
</g>
<g>
</g>
<g>
</g>
<g>
</g>
<g>
</g>
<g>
</g>
<g>
</g>
<g>
</g>
<g>
</g>
<g>
</g>
<g>
</g>
<g>
</g>
<g>
</g>
<g>
</g>
</svg>
