<?xml version="1.0" standalone="no"?>
<!DOCTYPE svg PUBLIC "-//W3C//DTD SVG 20010904//EN"
 "http://www.w3.org/TR/2001/REC-SVG-20010904/DTD/svg10.dtd">
<svg version="1.0" xmlns="http://www.w3.org/2000/svg"
 width="184.000000pt" height="184.000000pt" viewBox="0 0 184.000000 184.000000"
 preserveAspectRatio="xMidYMid meet">
<metadata>
Created by potrace 1.11, written by Peter Selinger 2001-2013
</metadata>
<g transform="translate(0.000000,184.000000) scale(0.100000,-0.100000)"
fill="#000000" stroke="none">
<path d="M455 1549 c-123 -43 -219 -148 -240 -262 l-7 -37 -105 0 -104 0 3
-37 3 -38 103 0 c90 0 102 -2 102 -17 0 -42 44 -131 91 -182 147 -160 381
-161 528 -1 131 144 125 351 -14 491 -94 93 -237 126 -360 83z m219 -88 c57
-25 102 -65 134 -119 23 -40 27 -58 27 -127 0 -85 -11 -116 -65 -185 -60 -77
-200 -112 -297 -75 -154 59 -222 230 -150 377 64 131 219 188 351 129z"/>
<path d="M521 1269 c-67 -67 -121 -125 -119 -130 2 -5 59 47 128 116 68 68
121 127 118 130 -3 3 -60 -49 -127 -116z"/>
<path d="M566 1184 c-71 -69 -125 -128 -122 -132 4 -3 64 51 133 121 70 69
125 129 122 131 -3 3 -63 -51 -133 -120z"/>
<path d="M1035 810 c-16 -4 -47 -15 -68 -25 -38 -18 -40 -18 -83 3 -51 25
-119 28 -167 8 -18 -7 -61 -37 -96 -67 -125 -106 -247 -199 -281 -216 -58 -28
-131 -41 -175 -31 -55 12 -75 34 -75 78 0 41 26 71 75 87 30 10 30 10 5 14
-30 6 -78 -6 -103 -25 -28 -22 -46 -84 -41 -144 7 -89 54 -156 138 -199 72
-37 201 -40 401 -9 94 15 231 72 323 134 l44 30 60 -40 c110 -73 209 -109 373
-134 17 -3 71 -7 121 -11 175 -11 279 38 333 157 47 104 8 226 -78 243 -24 5
-91 -8 -71 -13 3 -1 16 -4 30 -6 13 -2 35 -14 48 -26 32 -31 28 -93 -9 -121
-33 -24 -114 -25 -178 -2 -42 15 -140 80 -191 127 -39 36 -172 143 -200 161
-34 22 -99 35 -135 27z"/>
</g>
</svg>
