<svg id="Layer_1" data-name="Layer 1" xmlns="http://www.w3.org/2000/svg" viewBox="0 0 184.24 131.31"><title>Mustache_Logo_SVG_black</title><g id="Layer_2" data-name="Layer 2"><g id="Layer_1-2" data-name="Layer 1-2"><path d="M20.4,92.53c-1-.06-1.49-.1-2-.11-5-.16-9.28,3.35-9.68,7.94-.42,4.79,3,8.66,8.36,9.09,8.72.69,16.52-2.33,23.31-7.34A246.81,246.81,0,0,0,62,84.19c10.42-9.71,19.43-11,31.26-3.36,5.39-4,11.47-6.08,18.14-4.42a23.88,23.88,0,0,1,8.69,4.46c9,7.13,17.46,14.86,26.57,21.78a32.1,32.1,0,0,0,21.25,6.9c6.12-.3,9.94-3.76,9.7-8.6-.26-5.31-4.51-8.71-10.58-8.48a6,6,0,0,1-.74-.07c5.44-4.32,14.49-.86,16.82,6.41,4.06,12.64-3.2,26.27-16.09,30.54-7.35,2.43-14.8,2.2-22.3,1.47-13.46-1.29-26.72-3.82-38.82-10.2-4.53-2.37-8.64-5.54-12.94-8.35-17.53,14.6-38.83,18.37-61,19-7.57.22-14.74-1.59-20.85-6.47a24.55,24.55,0,0,1-7.85-26A11.5,11.5,0,0,1,20.4,92.53Z" transform="translate(0 0)"/><path d="M20.84,39.48H0V32.23H20.73c3.46-26,28.06-34.83,43-31.58A36.46,36.46,0,0,1,92.57,37.3c-.5,16.7-14.1,31.64-30.33,34.16C44.26,74.24,23.33,61.87,20.84,39.48Zm8.35-3.66A27.53,27.53,0,1,0,56.44,8.36,27.53,27.53,0,0,0,29.19,35.82h0Z" transform="translate(0 0)"/><path d="M69.5,25.89,70.56,27,45.37,52.32,44,51.07Z" transform="translate(0 0)"/><path d="M64.51,17.74,65.75,19,40.55,44.2,39.27,43Z" transform="translate(0 0)"/></g></g></svg>