<svg xmlns="http://www.w3.org/2000/svg" viewBox="0 0 184.26 131.34" fill="white"><title>Mustache_Logo_SVG</title><g id="Layer_2" data-name="Layer 2"><g id="Layer_1-2" data-name="Layer 1"><path d="M20.4,92.53c-1-.06-1.49-.1-2-.11-5-.16-9.28,3.35-9.68,7.94-.42,4.79,3,8.66,8.36,9.09,8.72.69,16.52-2.33,23.31-7.34A246.51,246.51,0,0,0,62,84.19c10.42-9.71,19.43-11,31.26-3.36,5.39-4,11.47-6.08,18.14-4.42a23.71,23.71,0,0,1,8.69,4.46c9,7.13,17.46,14.86,26.57,21.78a32.14,32.14,0,0,0,21.25,6.9c6.12-.3,9.94-3.76,9.7-8.6-.26-5.31-4.51-8.71-10.58-8.48a5.88,5.88,0,0,1-.74-.07c5.44-4.32,14.49-.86,16.82,6.41,4.06,12.64-3.2,26.27-16.09,30.54-7.35,2.43-14.8,2.2-22.3,1.47C131.26,129.53,118,127,105.9,120.62c-4.53-2.37-8.64-5.54-12.94-8.35-17.53,14.6-38.83,18.37-61,19-7.57.22-14.74-1.59-20.85-6.47a24.54,24.54,0,0,1-7.85-26A11.51,11.51,0,0,1,20.4,92.53Z"/><path d="M20.84,39.48H0V32.23H20.73C24.19,6.18,48.79-2.6,63.75.65A36.46,36.46,0,0,1,92.57,37.3C92.07,54,78.47,68.94,62.24,71.46,44.26,74.24,23.33,61.87,20.84,39.48Zm8.35-3.66c.14,15.57,12.44,27.84,27.73,27.68a27.57,27.57,0,1,0-.48-55.14A27.35,27.35,0,0,0,29.2,35.82Z"/><path d="M69.5,25.89,70.56,27,45.37,52.32,44,51.07Z"/><path d="M64.51,17.74,65.75,19l-25.2,25.2L39.27,43Z"/></g></g></svg>