<?xml version="1.0" encoding="UTF-8" standalone="no"?>
<svg
   xmlns:dc="http://purl.org/dc/elements/1.1/"
   xmlns:cc="http://creativecommons.org/ns#"
   xmlns:rdf="http://www.w3.org/1999/02/22-rdf-syntax-ns#"
   xmlns:svg="http://www.w3.org/2000/svg"
   xmlns="http://www.w3.org/2000/svg"
   viewBox="0 0 843.96002 451.14667"
   height="451.14667"
   width="843.96002"
   xml:space="preserve"
   id="svg2"
   version="1.1"><metadata
     id="metadata8"><rdf:RDF><cc:Work
         rdf:about=""><dc:format>image/svg+xml</dc:format><dc:type
           rdf:resource="http://purl.org/dc/dcmitype/StillImage" /></cc:Work></rdf:RDF></metadata><defs
     id="defs6" /><g
     transform="matrix(1.3333333,0,0,-1.3333333,0,451.14667)"
     id="g10"><g
       transform="scale(0.1)"
       id="g12"><path
         id="path14"
         style="fill:#ffffff;fill-opacity:1;fill-rule:nonzero;stroke:none"
         d="M 5498.87,1324.62 H 910.762 v 11.99 H 5498.87 v -11.99" /><path
         id="path16"
         style="fill:#ffffff;fill-opacity:1;fill-rule:nonzero;stroke:none"
         d="m 910.758,830.703 v 256.287 h 107.622 v -36.35 h -67.306 v -72.718 h 57.946 V 941.57 h -57.946 v -74.511 h 67.306 V 830.703 H 910.758" /><path
         id="path18"
         style="fill:#ffffff;fill-opacity:1;fill-rule:nonzero;stroke:none"
         d="m 1209.43,851.941 c -10.43,-11.882 -25.19,-21.238 -49.67,-21.238 h -65.15 v 256.287 h 65.15 c 24.48,0 39.24,-9.35 49.67,-21.24 19.09,-21.24 18.72,-57.59 18.72,-106.902 0,-49.317 0.37,-85.672 -18.72,-106.907 z M 1179.2,1040.2 c -3.96,6.12 -10.8,10.44 -20.52,10.44 h -23.75 V 867.059 h 23.75 c 9.72,0 16.56,4.32 20.52,10.441 7.56,11.875 8.64,37.07 8.64,81.711 0,44.629 -1.08,69.109 -8.64,80.989" /><path
         id="path20"
         style="fill:#ffffff;fill-opacity:1;fill-rule:nonzero;stroke:none"
         d="m 1439.14,830.703 v 159.824 l -34.92,-105.105 h -22.31 l -34.2,103.301 v -158.02 h -40.31 v 256.287 h 36.35 l 49.68,-134.627 49.31,134.627 h 36.72 V 830.703 h -40.32" /><path
         id="path22"
         style="fill:#ffffff;fill-opacity:1;fill-rule:nonzero;stroke:none"
         d="m 1677.17,849.426 c -10.79,-12.246 -25.19,-21.606 -49.67,-21.606 -24.48,0 -38.88,9.36 -49.67,21.606 -19.08,21.59 -18.72,59.031 -18.72,109.422 0,50.392 -0.36,87.832 18.72,109.422 10.79,12.24 25.19,21.61 49.67,21.61 24.48,0 38.88,-9.37 49.67,-21.61 19.08,-21.59 18.72,-59.03 18.72,-109.422 0,-50.391 0.36,-87.832 -18.72,-109.422 z m -30.23,194.374 c -3.6,5.75 -9.73,9.72 -19.44,9.72 -9.72,0 -15.48,-3.97 -19.08,-9.72 -7.56,-12.24 -9,-38.16 -9,-84.952 0,-46.797 1.44,-72.715 9,-84.953 3.6,-5.758 9.36,-9.715 19.08,-9.715 9.71,0 15.84,3.957 19.44,9.715 7.56,12.238 8.63,38.156 8.63,84.953 0,46.792 -1.07,72.712 -8.63,84.952" /><path
         id="path24"
         style="fill:#ffffff;fill-opacity:1;fill-rule:nonzero;stroke:none"
         d="m 1876.1,830.703 -60.47,152.266 V 830.703 h -40.31 v 256.287 h 35.99 l 60.12,-152.263 v 152.263 h 40.31 V 830.703 h -35.64" /><path
         id="path26"
         style="fill:#ffffff;fill-opacity:1;fill-rule:nonzero;stroke:none"
         d="M 2068.53,1050.64 V 830.703 h -40.31 v 219.937 h -42.84 v 36.35 h 126.34 v -36.35 h -43.19" /><path
         id="path28"
         style="fill:#ffffff;fill-opacity:1;fill-rule:nonzero;stroke:none"
         d="m 2296.58,849.426 c -10.8,-12.246 -25.2,-21.606 -49.68,-21.606 -24.47,0 -38.87,9.36 -49.67,21.606 -19.08,21.59 -18.72,59.031 -18.72,109.422 0,50.392 -0.36,87.832 18.72,109.422 10.8,12.24 25.2,21.61 49.67,21.61 24.48,0 38.88,-9.37 49.68,-21.61 19.07,-21.59 18.72,-59.03 18.72,-109.422 0,-50.391 0.35,-87.832 -18.72,-109.422 z m -30.24,194.374 c -3.59,5.75 -9.72,9.72 -19.44,9.72 -9.71,0 -15.47,-3.97 -19.07,-9.72 -7.56,-12.24 -9,-38.16 -9,-84.952 0,-46.797 1.44,-72.715 9,-84.953 3.6,-5.758 9.36,-9.715 19.07,-9.715 9.72,0 15.85,3.957 19.44,9.715 7.56,12.238 8.64,38.156 8.64,84.953 0,46.792 -1.08,72.712 -8.64,84.952" /><path
         id="path30"
         style="fill:#ffffff;fill-opacity:1;fill-rule:nonzero;stroke:none"
         d="m 2495.51,830.703 -60.47,152.266 V 830.703 h -40.31 v 256.287 h 35.99 l 60.12,-152.263 v 152.263 h 40.31 V 830.703 h -35.64" /><path
         id="path32"
         style="fill:#ffffff;fill-opacity:1;fill-rule:nonzero;stroke:none"
         d="m 2621.16,930.703 v 44.277 h 44.28 v -44.277 h -44.28" /><path
         id="path34"
         style="fill:#ffffff;fill-opacity:1;fill-rule:nonzero;stroke:none"
         d="m 2849.39,830.703 -10.44,50.754 h -59.39 l -10.08,-50.754 h -42.47 L 2790,1086.99 h 39.23 l 62.27,-256.287 z m -39.96,194.377 -21.95,-107.267 h 43.91 z" /><path
         id="path36"
         style="fill:#ffffff;fill-opacity:1;fill-rule:nonzero;stroke:none"
         d="m 2962.54,830.703 v 256.287 h 40.32 V 867.059 h 67.32 v -36.356 h -107.64" /><path
         id="path38"
         style="fill:#ffffff;fill-opacity:1;fill-rule:nonzero;stroke:none"
         d="m 3258.27,846.902 c -10.8,-11.16 -26.64,-16.199 -50.39,-16.199 h -63.71 v 256.287 h 64.07 c 23.75,0 39.23,-5.04 50.03,-15.84 11.52,-11.87 15.84,-28.8 15.84,-53.99 0,-17.277 -1.8,-31.672 -13.32,-43.195 -3.95,-3.953 -8.28,-6.836 -13.32,-8.992 5.4,-2.168 10.08,-5.403 13.68,-9.368 12.6,-13.671 13.69,-33.117 13.69,-48.957 0,-29.148 -4.33,-47.144 -16.57,-59.746 z m -54.72,203.738 h -19.07 v -69.476 h 19.07 c 21.25,0 30.25,10.438 30.25,34.926 0,25.9 -8.64,34.55 -30.25,34.55 z m 0.37,-103.667 h -19.44 v -79.914 h 19.44 c 21.96,0 30.59,10.082 30.59,39.953 0,28.437 -8.99,39.961 -30.59,39.961" /><path
         id="path40"
         style="fill:#ffffff;fill-opacity:1;fill-rule:nonzero;stroke:none"
         d="m 3355.09,830.703 v 256.287 h 107.62 v -36.35 h -67.31 v -72.718 h 57.95 V 941.57 h -57.95 v -74.511 h 67.31 v -36.356 h -107.62" /><path
         id="path42"
         style="fill:#ffffff;fill-opacity:1;fill-rule:nonzero;stroke:none"
         d="m 3635.4,830.703 -33.48,105.106 h -22.67 V 830.703 h -40.32 v 256.287 h 64.79 c 46.8,0 65.52,-22.67 65.52,-75.6 0,-31.663 -6.49,-54.339 -29.88,-66.937 l 38.15,-113.75 z m -31.32,219.937 h -24.83 v -78.472 h 24.83 c 21.6,0 24.84,18 24.84,39.222 0,21.25 -3.24,39.25 -24.84,39.25" /><path
         id="path44"
         style="fill:#ffffff;fill-opacity:1;fill-rule:nonzero;stroke:none"
         d="M 3823.46,1050.64 V 830.703 h -40.32 v 219.937 h -42.83 v 36.35 h 126.35 v -36.35 h -43.2" /><path
         id="path46"
         style="fill:#ffffff;fill-opacity:1;fill-rule:nonzero;stroke:none"
         d="m 4030.34,830.703 -10.43,50.754 h -59.39 l -10.08,-50.754 h -42.48 l 63,256.287 h 39.22 l 62.28,-256.287 z m -39.95,194.377 -21.95,-107.267 h 43.91 z" /><path
         id="path48"
         style="fill:#ffffff;fill-opacity:1;fill-rule:nonzero;stroke:none"
         d="m 4140.16,930.703 v 44.277 h 44.27 v -44.277 h -44.27" /><path
         id="path50"
         style="fill:#ffffff;fill-opacity:1;fill-rule:nonzero;stroke:none"
         d="m 4379.9,844.023 c -11.51,-10.437 -25.19,-16.203 -44.27,-16.203 -24.48,0 -38.87,9.36 -49.67,21.606 -19.08,21.59 -18.73,58.672 -18.73,109.058 0,50.396 -0.35,88.196 18.73,109.786 10.8,12.24 25.19,21.61 49.67,21.61 19.44,0 33.12,-5.77 44.63,-16.57 12.6,-11.88 19.8,-31.32 20.52,-53.99 h -40.31 c -0.36,9.36 -1.8,18.36 -6.13,24.84 -3.59,5.75 -8.99,9.36 -18.71,9.36 -9.72,0 -15.47,-3.97 -19.08,-9.72 -7.55,-12.24 -9,-38.16 -9,-84.952 0,-46.797 1.45,-72.715 9,-84.953 3.61,-5.758 9.36,-9.715 19.08,-9.715 9.72,0 15.47,3.605 19.08,9.355 4.31,6.485 5.76,15.84 6.12,25.195 h 40.31 c -0.72,-23.039 -8.28,-42.832 -21.24,-54.707" /><path
         id="path52"
         style="fill:#ffffff;fill-opacity:1;fill-rule:nonzero;stroke:none"
         d="m 4583.37,830.703 -10.43,50.754 h -59.39 l -10.09,-50.754 h -42.48 l 63,256.287 h 39.23 l 62.28,-256.287 z m -39.95,194.377 -21.96,-107.267 h 43.92 z" /><path
         id="path54"
         style="fill:#ffffff;fill-opacity:1;fill-rule:nonzero;stroke:none"
         d="m 4797.31,830.703 -60.47,152.266 V 830.703 h -40.31 v 256.287 h 36 l 60.11,-152.263 v 152.263 h 40.31 V 830.703 h -35.64" /><path
         id="path56"
         style="fill:#ffffff;fill-opacity:1;fill-rule:nonzero;stroke:none"
         d="m 5026.23,830.703 -10.43,50.754 h -59.39 l -10.08,-50.754 h -42.48 l 62.99,256.287 h 39.23 l 62.28,-256.287 z m -39.95,194.377 -21.96,-107.267 h 43.92 z" /><path
         id="path58"
         style="fill:#ffffff;fill-opacity:1;fill-rule:nonzero;stroke:none"
         d="m 5254.22,851.941 c -10.44,-11.882 -25.2,-21.238 -49.68,-21.238 h -65.15 v 256.287 h 65.15 c 24.48,0 39.24,-9.35 49.68,-21.24 19.07,-21.24 18.71,-57.59 18.71,-106.902 0,-49.317 0.36,-85.672 -18.71,-106.907 z m -30.24,188.259 c -3.96,6.12 -10.8,10.44 -20.52,10.44 h -23.75 V 867.059 h 23.75 c 9.72,0 16.56,4.32 20.52,10.441 7.56,11.875 8.64,37.07 8.64,81.711 0,44.629 -1.08,69.109 -8.64,80.989" /><path
         id="path60"
         style="fill:#ffffff;fill-opacity:1;fill-rule:nonzero;stroke:none"
         d="m 5455.06,830.703 -10.43,50.754 h -59.4 l -10.07,-50.754 h -42.48 l 62.99,256.287 h 39.23 l 62.28,-256.287 z m -39.95,194.377 -21.96,-107.267 h 43.92 z" /><path
         id="path62"
         style="fill:#ffffff;fill-opacity:1;fill-rule:nonzero;stroke:none"
         d="m 4895.82,1625.7 c 55.23,3.19 70.49,11.19 114.55,118.52 l 176.19,430.37 h 13.58 l 217.05,-489.65 c 20.82,-46.44 40.06,-59.24 81.68,-59.24 v -28.45 c -55.28,0.82 -90.51,2.42 -122.54,2.42 -32.01,0 -66.47,-1.6 -124.73,-2.42 v 28.45 c 47.07,0 59.86,7.97 59.86,29.61 0,8.81 -5.6,25.65 -22.4,65.69 l -31.05,73.79 h -175.55 l -26.5,-64.3 c -20.02,-56.06 -22.11,-66.37 -22.11,-74.36 0,-20.84 4.53,-29.65 57.13,-30.43 v -28.45 c -71.8,2.42 -79.81,2.42 -99.07,2.42 -20.02,0 -28.02,0 -96.09,-2.42 z m 347.23,203.66 -79.18,188.24 -69.03,-188.24 z" /><path
         id="path64"
         style="fill:#ffffff;fill-opacity:1;fill-rule:nonzero;stroke:none"
         d="m 3424.41,1625.7 c 52.04,0.78 66.45,19.98 66.45,64.85 v 392.42 c 0,44.86 -14.41,64.08 -66.45,64.86 v 29.16 c 27.19,-0.8 66.45,-2.4 107.29,-2.4 122.54,0 221.03,1.6 295.53,2.4 l 3.2,-139.65 h -25.61 c -12.85,76.86 -47.28,104.09 -143.39,104.09 h -69.65 v -229.75 h 61.64 c 72.91,0 83.28,24.73 88.92,75.18 h 27.21 c -0.8,-31.22 -1.6,-60.84 -1.6,-86.47 0,-37.66 0.8,-68.09 1.6,-100.12 h -27.21 c 0,63.27 -20.04,77.6 -89.7,77.6 h -60.86 v -188.91 c 0,-36.83 15.21,-56.87 90.51,-56.87 81.67,0 138.55,15.21 157.73,116.13 h 27.25 c -4.83,-38.45 -12.02,-110.11 -12.02,-150.97 -77.69,0.82 -179.37,2.42 -305.13,2.42 -61.66,0 -109.73,-1.6 -125.71,-2.42 v 28.45" /><path
         id="path66"
         style="fill:#ffffff;fill-opacity:1;fill-rule:nonzero;stroke:none"
         d="m 3947.32,1625.7 c 52.07,0.78 66.49,19.98 66.49,64.85 v 392.42 c 0,44.86 -14.42,64.08 -66.49,64.86 v 29.16 c 37.68,-0.8 69.71,-2.4 99.32,-2.4 52.05,0 104.92,2.4 156.97,2.4 139.32,0 183.4,-74.8 183.4,-153.28 0,-54.47 -33.65,-115.33 -111.35,-139.35 l 100.12,-184.18 c 36.04,-66.51 55.27,-81.7 100.9,-88.09 v -19.24 c -12.01,-0.8 -24.02,-1.6 -36.86,-1.6 -106.48,0 -150.52,36.84 -195.37,132.15 l -31.23,63.92 c -33.61,71.27 -44.82,76.88 -98.51,77.7 v -174.47 c 0,-44.87 14.43,-64.07 66.48,-64.85 v -28.45 c -64.06,1.62 -91.31,2.42 -116.93,2.42 -25.63,0 -52.83,-0.8 -116.94,-2.42 z m 167.39,273.17 c 15.21,-3.21 36.85,-5.61 52.89,-5.61 72.05,0 115.29,31.13 115.29,108.83 0,58.46 -29.63,145.74 -133.75,145.74 -14.39,0 -23.22,-0.78 -34.43,-3.2 v -245.76" /><path
         id="path68"
         style="fill:#ffffff;fill-opacity:1;fill-rule:nonzero;stroke:none"
         d="m 4590.57,1625.7 c 52.07,0.78 66.44,19.98 66.44,64.85 v 441.27 h -70.47 c -64.04,0 -106.52,-17.62 -111.31,-118.52 h -29.6 l 4.78,163.69 c 85.68,-0.8 171.39,-1.62 257.05,-2.4 85.7,-0.8 171.37,1.6 257.07,2.4 l 4.83,-163.69 h -29.63 c -4.81,100.9 -47.25,118.52 -111.33,118.52 h -70.47 v -441.27 c 0,-44.87 14.39,-64.07 66.46,-64.85 v -28.45 c -64.04,1.62 -91.28,2.42 -116.93,2.42 -25.6,0 -52.83,-0.8 -116.89,-2.42 v 28.45" /><path
         id="path70"
         style="fill:#ffffff;fill-opacity:1;fill-rule:nonzero;stroke:none"
         d="m 3504.98,2292.01 -46.13,97.03 h -21.6 v -97.03 h -64.11 v 260.74 h 103.29 c 57.85,0 88.98,-41.01 88.98,-83.86 0,-35.53 -21.97,-57.87 -42.48,-68.13 l 56.41,-108.75 z m -31.48,203.24 h -36.25 v -52.73 h 36.25 c 17.57,0 27.83,12.81 27.83,26.37 0,13.55 -10.26,26.36 -27.83,26.36" /><path
         id="path72"
         style="fill:#ffffff;fill-opacity:1;fill-rule:nonzero;stroke:none"
         d="m 3757.64,2289.8 c -39.91,0 -72.5,7.33 -98.87,34.44 l 41.02,41.01 c 13.55,-13.55 37.34,-18.32 58.22,-18.32 25.27,0 37.36,8.42 37.36,23.44 0,6.23 -1.46,11.35 -5.14,15.39 -3.3,3.28 -8.78,5.86 -17.2,6.95 l -31.51,4.4 c -23.06,3.3 -40.64,10.98 -52.36,23.07 -12.09,12.46 -17.95,30.03 -17.95,52.36 0,47.62 35.9,82.4 95.22,82.4 37.36,0 65.56,-8.79 87.89,-31.13 l -40.28,-40.27 c -16.48,16.48 -38.08,15.37 -49.43,15.37 -22.34,0 -31.5,-12.82 -31.5,-24.16 0,-3.3 1.09,-8.07 5.13,-12.09 3.28,-3.3 8.79,-6.59 17.93,-7.7 l 31.51,-4.39 c 23.43,-3.28 40.27,-10.61 51.27,-21.61 13.9,-13.55 19.41,-32.94 19.41,-57.12 0,-53.11 -45.78,-82.04 -100.72,-82.04" /><path
         id="path74"
         style="fill:#ffffff;fill-opacity:1;fill-rule:nonzero;stroke:none"
         d="m 3970.02,2292.01 v 260.74 h 64.08 v -260.74 h -64.08" /><path
         id="path76"
         style="fill:#ffffff;fill-opacity:1;fill-rule:nonzero;stroke:none"
         d="m 4271.02,2495.63 v -203.62 h -64.09 v 203.62 h -64.1 v 57.12 h 192.27 v -57.12 h -64.08" /><path
         id="path78"
         style="fill:#ffffff;fill-opacity:1;fill-rule:nonzero;stroke:none"
         d="m 4560.29,2398.2 v -106.19 h -64.08 v 106.19 l -78.75,154.55 h 69.96 l 41.02,-93.75 40.64,93.75 h 69.94 l -78.73,-154.55" /><path
         id="path80"
         style="fill:#ffffff;fill-opacity:1;fill-rule:nonzero;stroke:none"
         d="m 5016.54,2319.1 c -19.04,-19.04 -41.01,-29.3 -72.87,-29.3 -31.85,0 -53.83,10.26 -72.87,29.3 -27.48,27.46 -26.37,64.08 -26.37,103.28 0,39.18 -1.11,75.8 26.37,103.26 19.04,19.05 41.02,29.3 72.87,29.3 31.86,0 53.83,-10.25 72.87,-29.3 27.46,-27.46 26.37,-64.08 26.37,-103.26 0,-39.2 1.09,-75.82 -26.37,-103.28 z m -47.24,167.36 c -4.75,6.24 -13.91,11.35 -25.63,11.35 -11.72,0 -20.88,-5.11 -25.64,-11.35 -5.86,-7.69 -9.51,-16.48 -9.51,-64.08 0,-47.61 3.65,-56.03 9.51,-63.73 4.76,-6.23 13.92,-11.72 25.64,-11.72 11.72,0 20.88,5.49 25.63,11.72 5.86,7.7 9.53,16.12 9.53,63.73 0,47.6 -3.67,56.39 -9.53,64.08" /><path
         id="path82"
         style="fill:#ffffff;fill-opacity:1;fill-rule:nonzero;stroke:none"
         d="m 5220.86,2495.63 v -45.79 h 96.68 v -57.13 h -96.68 v -100.7 h -64.08 v 260.74 h 177.24 v -57.12 h -113.16" /><path
         id="path84"
         style="fill:#ffffff;fill-opacity:1;fill-rule:nonzero;stroke:none"
         d="m 1744.14,1625.7 c 55.27,3.19 70.49,11.19 114.53,118.52 l 176.21,430.37 h 13.6 l 217.03,-489.65 c 20.82,-46.44 40.04,-59.24 81.66,-59.24 v -28.45 c -55.26,0.82 -90.49,2.42 -122.52,2.42 -32.01,0 -66.45,-1.6 -124.75,-2.42 v 28.45 c 47.09,0 59.89,7.97 59.89,29.61 0,8.81 -5.61,25.65 -22.43,65.69 l -31.05,73.79 H 1930.8 l -26.52,-64.3 c -20.04,-56.06 -22.11,-66.37 -22.11,-74.36 0,-20.84 4.53,-29.65 57.13,-30.43 v -28.45 c -71.84,2.42 -79.83,2.42 -99.05,2.42 -20.02,0 -28.02,0 -96.11,-2.42 z m 347.23,203.66 -79.18,188.24 -69.01,-188.24 z" /><path
         id="path86"
         style="fill:#ffffff;fill-opacity:1;fill-rule:nonzero;stroke:none"
         d="m 2392.07,1625.7 c 52.03,0.78 66.47,19.98 66.47,64.85 v 392.42 c 0,44.86 -14.44,64.08 -66.47,64.86 v 29.16 c 64.06,-1.62 91.27,-2.4 116.89,-2.4 25.65,0 52.88,0.78 116.96,2.4 v -29.16 c -52.05,-0.78 -66.47,-20 -66.47,-64.86 v -392.42 c 0,-41.64 23.21,-55.26 89.69,-55.26 105.72,0 158.56,13.62 174.57,112.93 h 27.23 l -12.83,-150.97 c -40.02,0.82 -98.48,0.82 -166.55,1.62 -67.28,0.8 -143.38,0.8 -220.25,0.8 -24.04,0 -44.85,-0.8 -59.24,-2.42 v 28.45" /><path
         id="path88"
         style="fill:#ffffff;fill-opacity:1;fill-rule:nonzero;stroke:none"
         d="m 2892.13,1625.7 c 52.07,0.78 66.46,19.98 66.46,64.85 v 392.42 c 0,44.86 -14.39,64.08 -66.46,64.86 v 29.16 c 38.46,-1.62 69.71,-2.4 101.7,-2.4 49.67,0 99.31,2.4 149,2.4 83.26,0 184.94,-29.16 184.94,-145.27 0,-63.26 -49.61,-115.33 -134.51,-128.93 v -1.62 c 96.12,-13.61 157.76,-54.47 157.76,-148.14 0,-44.07 -18.42,-85.71 -44.89,-110.53 -32.79,-30.41 -72.83,-45.25 -160.92,-45.25 -53.67,0 -120.11,2.42 -161.77,2.42 -36.06,0 -65.67,-0.8 -91.31,-2.42 z m 167.38,283.09 h 38.48 c 79.63,0 128.92,31.93 128.92,104.51 0,83.3 -44.04,131.33 -131.34,131.33 h -36.06 z m 0,-227.05 c 0,-38.44 15.24,-49.65 68.09,-49.65 76.87,0 114.51,36.05 114.51,104.1 0,90.08 -64.06,143.13 -172.17,143.13 h -10.43 v -197.58" /><path
         id="path90"
         style="fill:#ffffff;fill-opacity:1;fill-rule:nonzero;stroke:none"
         d="m 2056.41,2289.8 c -54.2,0 -98.52,36.63 -98.52,93.75 v 169.2 h 64.08 v -167.73 c 0,-24.16 13.19,-38.09 34.44,-38.09 21.23,0 35.15,13.93 35.15,38.09 v 167.73 h 64.08 v -169.2 c 0,-57.12 -45.03,-93.75 -99.23,-93.75" /><path
         id="path92"
         style="fill:#ffffff;fill-opacity:1;fill-rule:nonzero;stroke:none"
         d="m 2422.95,2292.01 -83.5,131.1 v -131.1 h -64.08 v 260.74 h 56.02 l 83.49,-131.11 v 131.11 h 64.1 v -260.74 h -56.03" /><path
         id="path94"
         style="fill:#ffffff;fill-opacity:1;fill-rule:nonzero;stroke:none"
         d="m 2603.09,2292.01 v 260.74 h 64.1 v -260.74 h -64.1" /><path
         id="path96"
         style="fill:#ffffff;fill-opacity:1;fill-rule:nonzero;stroke:none"
         d="M 2898.59,2292.01 H 2851 l -86.06,260.74 h 66.27 l 43.95,-145.76 43.22,145.76 h 66.64 l -86.43,-260.74" /><path
         id="path98"
         style="fill:#ffffff;fill-opacity:1;fill-rule:nonzero;stroke:none"
         d="m 3080.96,2292.01 v 260.74 h 177.24 v -57.12 h -113.16 v -43.6 h 96.68 v -57.13 h -96.68 v -45.76 h 113.16 v -57.13 h -177.24" /><path
         id="path100"
         style="fill:#ffffff;fill-opacity:1;fill-rule:nonzero;stroke:none"
         d="m 1246.29,2665.31 c -163.63,0 -294.688,-26.7 -412.442,-84.02 l -27.266,-13.26 v -30.33 -451.78 c 0,-78.79 16.484,-276.33 169.199,-408.34 123.299,-106.51 249.549,-150.24 254.859,-152.05 l 15.65,-5.33 15.64,5.33 c 5.3,1.81 131.49,45.54 254.81,152.03 152.65,132.09 169.14,329.57 169.14,408.36 v 451.78 30.33 l -27.27,13.26 c -117.71,57.32 -248.73,84.02 -412.32,84.02 v 0" /><path
         id="path102"
         style="fill:#0d7a3f;fill-opacity:1;fill-rule:nonzero;stroke:none"
         d="m 1246.29,1545.82 -7.81,2.66 c -5.14,1.75 -127.07,44 -246.839,147.44 -145.137,125.47 -160.821,314.53 -160.821,390 v 466.95 l 13.633,6.62 c 114.336,55.67 242.007,81.58 401.837,81.58 159.78,0 287.42,-25.91 401.72,-81.58 l 13.63,-6.64 v -466.93 c 0,-75.45 -15.66,-264.49 -160.74,-390 -119.81,-103.44 -241.66,-145.69 -246.8,-147.44 l -7.81,-2.66" /><path
         id="path104"
         style="fill:#fef3b2;fill-opacity:1;fill-rule:nonzero;stroke:none"
         d="m 1246.29,2592.58 c -145.8,0 -262.911,-22.37 -366.974,-70.22 v -305.43 c 42.793,25.1 78.789,54.71 106.075,86.27 32.319,-37.36 76.739,-72.07 130.369,-99.68 53.71,27.61 98.19,62.32 130.49,99.68 32.3,-37.36 76.8,-72.07 130.49,-99.68 53.61,27.61 98.01,62.32 130.29,99.68 27.29,-31.56 63.3,-61.17 106.11,-86.27 v 305.43 c -104.02,47.85 -221.11,70.22 -366.85,70.22 z m 185.37,-243.38 c -41.54,0 -70.8,6.15 -112.23,14.78 -7.48,1.57 -14.8,2.33 -21.72,2.33 -16.11,0 -30.35,-3.81 -41.85,-9.24 -3.38,-1.6 -6.56,-3.34 -9.61,-5.12 -2.97,1.78 -6.25,3.52 -9.53,5.12 -11.62,5.43 -25.72,9.24 -41.84,9.24 -6.91,0 -14.25,-0.76 -21.79,-2.33 -41.43,-8.63 -70.73,-14.78 -112.27,-14.78 -5.86,0 -12.01,0.12 -18.46,0.35 l 13.05,140 c 6.68,-0.29 12.81,-0.45 18.61,-0.53 l 3.38,43.75 12.58,-0.62 c 4.94,-0.24 9.41,-0.33 13.67,-0.33 14.57,0 27.19,1.31 41.14,4.27 8.82,1.86 17.59,4.22 27.75,6.94 4.69,1.25 9.65,2.58 14.98,3.96 18.32,4.47 34.98,2.07 50.21,-6.62 2.91,-1.64 5.79,-3.53 8.5,-5.64 2.73,2.09 5.63,4 8.63,5.68 15.14,8.63 32.66,10.96 49.98,6.6 5.63,-1.44 10.73,-2.81 15.53,-4.1 10,-2.68 18.65,-4.98 27.33,-6.82 18.57,-3.94 34.57,-4.98 54.76,-3.94 l 12.62,0.64 3.38,-43.77 c 5.84,0.08 11.87,0.22 18.65,0.53 l 13.1,-140 c -6.5,-0.23 -12.65,-0.35 -18.55,-0.35" /><path
         id="path106"
         style="fill:#ffffff;fill-opacity:1;fill-rule:nonzero;stroke:none"
         d="m 1182.58,2404.51 -1.1,-0.27 c -34.14,-8.56 -56.71,-14.2 -89.1,-14.22 l 8.95,115.88 c 17.28,0 32.21,1.31 48.83,4.82 9.49,2.01 18.57,4.44 29.1,7.25 4.61,1.25 9.49,2.56 14.61,3.89 11.27,2.77 21.5,1.4 31.09,-4.07 3.52,-1.97 6.23,-4.14 8.32,-6.03 V 2402.4 c -16.37,5.57 -34,6.35 -50.7,2.11" /><path
         id="path108"
         style="fill:#ffffff;fill-opacity:1;fill-rule:nonzero;stroke:none"
         d="m 1309.94,2404.51 c -17.17,4.3 -34.22,3.62 -50.72,-2.11 v 109.2 c 2.48,2.29 5.27,4.47 8.42,6.25 9.43,5.37 20.27,6.68 30.82,4.03 5.45,-1.39 10.47,-2.74 15.21,-4.01 10.35,-2.77 19.3,-5.17 28.65,-7.15 15.84,-3.34 30.1,-4.84 46.57,-4.84 0.74,0 1.48,0.02 2.26,0.02 l 8.95,-115.88 c -32.99,0.02 -55.72,5.78 -90.16,14.49" /><path
         id="path110"
         style="fill:#479954;fill-opacity:1;fill-rule:nonzero;stroke:none"
         d="m 1246.33,2156.46 c 47.65,10.77 91.5,27.02 130.41,47.06 -53.69,27.61 -98.19,62.32 -130.49,99.68 -32.3,-37.36 -76.82,-72.07 -130.57,-99.65 38.99,-20.09 82.89,-36.34 130.65,-47.09" /><path
         id="path112"
         style="fill:#298948;fill-opacity:1;fill-rule:nonzero;stroke:none"
         d="m 985.664,2156.62 c 40.916,-9.28 84.646,-14.55 130.646,-14.55 45.72,0 89.2,5.25 129.94,14.41 -47.7,10.75 -91.46,27.04 -130.43,47.06 -38.85,-19.99 -82.6,-36.16 -130.156,-46.92" /><path
         id="path114"
         style="fill:#298948;fill-opacity:1;fill-rule:nonzero;stroke:none"
         d="m 1246.25,2156.48 c 40.72,-9.16 84.2,-14.41 129.9,-14.41 46,0 89.75,5.27 130.69,14.57 -47.56,10.74 -91.29,26.91 -130.16,46.91 -38.95,-20.01 -82.73,-36.32 -130.43,-47.07" /><path
         id="path116"
         style="fill:#3e9450;fill-opacity:1;fill-rule:nonzero;stroke:none"
         d="m 879.316,2142.77 c 37.09,1.51 72.696,6.25 106.348,13.85 -38.144,8.65 -73.672,20.96 -106.348,35.76 v -49.61" /><path
         id="path118"
         style="fill:#77b067;fill-opacity:1;fill-rule:nonzero;stroke:none"
         d="m 879.316,2216.93 v -24.53 c 32.696,-14.84 68.262,-27.13 106.446,-35.8 47.478,10.76 91.168,26.95 129.998,46.92 -53.63,27.61 -98.05,62.32 -130.369,99.68 -27.286,-31.56 -63.282,-61.17 -106.075,-86.27" /><path
         id="path120"
         style="fill:#3e9450;fill-opacity:1;fill-rule:nonzero;stroke:none"
         d="m 1613.14,2192.38 c -32.65,-14.82 -68.18,-27.11 -106.3,-35.76 33.65,-7.6 69.23,-12.32 106.3,-13.85 v 49.61" /><path
         id="path122"
         style="fill:#77b067;fill-opacity:1;fill-rule:nonzero;stroke:none"
         d="m 1613.14,2192.4 v 24.53 c -42.81,25.1 -78.82,54.71 -106.11,86.27 -32.28,-37.36 -76.68,-72.07 -130.29,-99.68 38.83,-19.97 82.54,-36.16 130,-46.92 38.16,8.67 73.71,20.96 106.4,35.8" /><path
         id="path124"
         style="fill:#fddb0b;fill-opacity:1;fill-rule:nonzero;stroke:none"
         d="m 1568.73,2076.17 c -19.4,12.35 -37.71,24 -61.69,24 -23.99,0 -42.3,-11.67 -61.68,-24.02 -20.07,-12.78 -40.81,-26.01 -68.68,-26.01 -27.86,0 -48.64,13.23 -68.73,26.01 -19.4,12.36 -37.73,24.02 -61.72,24.02 -23.98,0 -42.31,-11.67 -61.71,-24.02 -20.09,-12.78 -40.86,-26.01 -68.72,-26.01 -27.85,0 -48.62,13.23 -68.67,26.01 -19.39,12.36 -37.7,24.02 -61.677,24.02 -23.992,0 -42.308,-11.65 -61.699,-24 -13.52,-8.59 -27.387,-17.32 -43.492,-22.15 1.07,-18.38 3.222,-39.95 7.215,-63.45 11.464,4.75 21.98,11.38 32.269,17.91 19.438,12.33 39.547,25.08 65.707,25.08 26.167,0 46.257,-12.75 65.697,-25.08 20.04,-12.73 38.97,-24.74 64.65,-24.74 25.68,0 44.63,12.01 64.69,24.74 19.47,12.33 39.58,25.08 65.74,25.08 26.17,0 46.29,-12.75 65.74,-25.08 20.08,-12.73 39.03,-24.74 64.71,-24.74 25.68,0 44.61,12.01 64.65,24.74 19.45,12.33 39.55,25.08 65.71,25.08 26.16,0 46.26,-12.75 65.69,-25.08 10.28,-6.53 20.79,-13.15 32.25,-17.9 3.98,23.5 6.14,45.07 7.21,63.44 -16.09,4.83 -29.96,13.56 -43.46,22.15" /><path
         id="path126"
         style="fill:#feec81;fill-opacity:1;fill-rule:nonzero;stroke:none"
         d="m 1283.83,1613.44 v 29.03 l -34.39,-33.81 -29,28.22 v 43.81 l 29,-28.31 34.39,33.99 v 47.86 l -34.39,-33.81 -29,28.21 v 45.95 l 29,-28.34 34.39,33.99 v 51.87 l -34.39,-33.81 -29,28.21 v 42.96 l 29,-26.44 49.04,47.77 -51.99,44.1 -56.93,-49.41 v -262.84 c 26.11,-13.01 46.3,-21.32 56.72,-25.34 7.68,2.97 20.79,8.34 37.55,16.14" /><path
         id="path128"
         style="fill:#feec81;fill-opacity:1;fill-rule:nonzero;stroke:none"
         d="m 1153.56,1729.54 -34.39,-35.31 -29.01,29.63 v 45.59 l 29.01,-28.77 34.39,34.52 v 54.13 l -34.39,-34.32 -29.01,28.63 v 45.82 l 29.01,-26.44 49.04,47.77 -51.99,44.1 -56.93,-49.41 v -182 c 33.19,-25.26 65.62,-45.63 94.27,-61.72 v 87.78" /><path
         id="path130"
         style="fill:#feec81;fill-opacity:1;fill-rule:nonzero;stroke:none"
         d="m 1379.71,1843.02 49.04,47.77 -51.99,44.1 -56.94,-49.41 v -254.17 c 27.7,14.61 60.26,33.82 94.28,58.09 v 40.14 l -34.39,-35.31 -29.01,29.63 v 45.59 l 29.01,-28.77 34.39,34.52 v 54.13 l -34.39,-34.32 -29.01,28.63 v 45.82 l 29.01,-26.44" /><path
         id="path132"
         style="fill:#feec81;fill-opacity:1;fill-rule:nonzero;stroke:none"
         d="m 1509.98,1843.02 49.04,47.77 -51.99,44.1 -56.94,-49.41 V 1716.7 c 6.37,5.14 12.76,10.42 19.12,15.92 31.34,27.11 55.88,57.71 75.16,89.49 v 7.22 l -34.39,-34.32 -29.01,28.63 v 45.82 l 29.01,-26.44" /><path
         id="path134"
         style="fill:#feec81;fill-opacity:1;fill-rule:nonzero;stroke:none"
         d="m 988.902,1843.02 49.048,47.77 -51.997,44.1 -56.933,-49.41 v -28.13 c 21.293,-44.17 51.464,-87.68 94.28,-124.71 v 96.69 l -34.398,-34.32 -29.004,28.63 v 45.82 l 29.004,-26.44" /></g></g></svg>